<svg xmlns="http://www.w3.org/2000/svg" viewBox="0 0 960 240" role="img" aria-labelledby="title desc">
<title id="title">VexaChat premium wordmark</title><desc id="desc">VexaChat luxury messenger wordmark with cyan-violet emblem.</desc>
<defs><linearGradient id="g" x1="0" y1="0" x2="1" y2="1"><stop stop-color="#6CEBFF"/><stop offset=".55" stop-color="#19C8FF"/><stop offset="1" stop-color="#8A63FF"/></linearGradient></defs>
<rect width="960" height="240" rx="56" fill="#07111F"/>
<g transform="translate(48 32)">
<rect width="176" height="176" rx="48" fill="#0A1728" stroke="url(#g)" stroke-width="7"/>
<path d="M43 57h90c17 0 30 13 30 30v46c0 17-13 30-30 30H91l-31 25v-25h-7c-17 0-30-13-30-30V87c0-17 13-30 30-30Z" fill="none" stroke="url(#g)" stroke-width="10"/>
<path d="m48 101 25 34 25-43 19 28 15-20" fill="none" stroke="#F6FDFF" stroke-width="11" stroke-linecap="round" stroke-linejoin="round"/>
<circle cx="142" cy="51" r="7" fill="#6CEBFF"/>
</g>
<text x="270" y="126" fill="#F6FDFF" font-family="Inter,Segoe UI,Arial,sans-serif" font-size="72" font-weight="700" letter-spacing="-2">Vexa<tspan fill="url(#g)">Chat</tspan></text>
<text x="275" y="164" fill="#88A2BB" font-family="Inter,Segoe UI,Arial,sans-serif" font-size="20" font-weight="500" letter-spacing="5">PREMIUM SECURE MESSAGING</text>
</svg>